# xmcd
#
# Track frame offsets:
#	150
#	19863
#	31949
#	47831
#	51417
#	68209
#	85428
#	99030
#	109013
#	128408
#	141788
#	173389
#	187835
#	204391
#	226005
#	230939
#	239650
#
# Disc length: 3423 seconds
#
# Revision: 3
# Processed by: cddbd v1.5.2PL0 Copyright (c) Steve Scherf et al.
# Submitted via: audiograbber 1.81.03
#
DISCID=da0d5d11
DTITLE=R-GO - Eltitkolt dalok
DYEAR=1900
DGENRE=
TTITLE0=Most, velem bosszanovázz!
TTITLE1=Te vagy nekem
TTITLE2=Adj egy kis jelt
TTITLE3=Nyomjuk a refrént
TTITLE4=Júlia
TTITLE5=Rég várok valakire
TTITLE6=Te csak mindig akkor sírsz
TTITLE7=Idõ
TTITLE8=Afrikai szél
TTITLE9=Jenõ,a rejtõzködõ
TTITLE10=Mixture
TTITLE11=In the summertime
TTITLE12=Vénusz Isten
TTITLE13=Most kell, hogy nagyon szeress
TTITLE14=Attila, az operaház "csillaga"
TTITLE15=Florida
TTITLE16=Danubius mix
EXTD=
EXTT0=
EXTT1=
EXTT2=
EXTT3=
EXTT4=
EXTT5=
EXTT6=
EXTT7=
EXTT8=
EXTT9=
EXTT10=
EXTT11=
EXTT12=
EXTT13=
EXTT14=
EXTT15=
EXTT16=
PLAYORDER=
